<svg xmlns="http://www.w3.org/2000/svg" fill-rule="evenodd" viewBox="0 0 100 100">
    <path d="M92.45 21.729H7.549a1.5 1.5 0 0 0-1.5 1.5v53.542a1.5 1.5 0 0 0 1.5 1.5H92.45a1.5 1.5 0 0 0 1.5-1.5V23.229a1.5 1.5 0 0 0-1.5-1.5zm-1.5 43.136c-7.654-.756-13.654-7.228-13.654-15.078s6-14.323 13.654-15.078v30.156zM48.5 57.617c-3.566-.701-6.265-3.848-6.265-7.616 0-3.769 2.699-6.916 6.265-7.617v15.233zm3-15.234c3.566.701 6.265 3.848 6.265 7.617 0 3.768-2.699 6.915-6.265 7.616V42.383zM9.049 34.708c7.654.756 13.654 7.228 13.654 15.078s-6 14.323-13.654 15.078V34.708zm0 33.157c9.31-.767 16.654-8.574 16.654-18.078S18.358 32.476 9.049 31.709V24.73H48.5v14.623c-5.227.734-9.265 5.222-9.265 10.649 0 5.425 4.039 9.914 9.265 10.648v14.623H9.049v-7.408zM51.5 75.271V60.648c5.227-.734 9.265-5.222 9.265-10.648s-4.039-9.915-9.265-10.649V24.728h39.45v6.979c-9.309.767-16.654 8.574-16.654 18.078S81.64 67.096 90.95 67.863v7.406H51.5v.002z"/>
</svg>
