<svg xmlns="http://www.w3.org/2000/svg" fill-rule="evenodd" viewBox="0 0 100 100">
    <path d="M94.232 51.2H66.245V23.68a1.5 1.5 0 0 0-1.5-1.5H35.257a1.5 1.5 0 0 0-1.5 1.5v16.225H5.77a1.5 1.5 0 0 0-1.5 1.5v35.45a1.5 1.5 0 0 0 1.5 1.5h88.463a1.5 1.5 0 0 0 1.5-1.5V52.7a1.502 1.502 0 0 0-1.501-1.5zm-1.5 24.155H7.269v-32.45h27.987a1.5 1.5 0 0 0 1.5-1.5V25.18h26.488V52.7a1.5 1.5 0 0 0 1.5 1.5h27.987v21.155h.001z"/>
    <path d="M20.002 49.489a2.353 2.353 0 1 0 0 4.706 2.353 2.353 0 1 0 0-4.706zM50 31.614a2.353 2.353 0 1 0 0 4.706 2.353 2.353 0 1 0 0-4.706zm30.5 29.089a2.353 2.353 0 1 0 0 4.706 2.353 2.353 0 1 0 0-4.706z"/>
</svg>
